<mxfile host="65bd71144e">
    <diagram id="kmuDzgQPOymyvbIrG2bL" name="第 1 页">
        <mxGraphModel dx="1439" dy="638" grid="1" gridSize="10" guides="1" tooltips="1" connect="1" arrows="1" fold="1" page="1" pageScale="1" pageWidth="827" pageHeight="1169" math="0" shadow="0">
            <root>
                <mxCell id="0"/>
                <mxCell id="1" parent="0"/>
                <mxCell id="2" value="" style="shape=flexArrow;endArrow=classic;html=1;" edge="1" parent="1">
                    <mxGeometry width="50" height="50" relative="1" as="geometry">
                        <mxPoint x="130" y="130" as="sourcePoint"/>
                        <mxPoint x="720" y="130" as="targetPoint"/>
                    </mxGeometry>
                </mxCell>
                <mxCell id="3" value="now" style="rounded=0;whiteSpace=wrap;html=1;" vertex="1" parent="1">
                    <mxGeometry x="404" y="80" width="50" height="40" as="geometry"/>
                </mxCell>
                <mxCell id="4" value="next" style="rounded=0;whiteSpace=wrap;html=1;" vertex="1" parent="1">
                    <mxGeometry x="510" y="80" width="50" height="40" as="geometry"/>
                </mxCell>
                <mxCell id="5" value="" style="shape=flexArrow;endArrow=classic;html=1;width=13;endSize=10.27;" edge="1" parent="1">
                    <mxGeometry width="50" height="50" relative="1" as="geometry">
                        <mxPoint x="428.5" y="210" as="sourcePoint"/>
                        <mxPoint x="428.5" y="140" as="targetPoint"/>
                    </mxGeometry>
                </mxCell>
                <mxCell id="6" value="" style="shape=flexArrow;endArrow=classic;html=1;" edge="1" parent="1">
                    <mxGeometry width="50" height="50" relative="1" as="geometry">
                        <mxPoint x="144" y="635" as="sourcePoint"/>
                        <mxPoint x="734" y="635" as="targetPoint"/>
                    </mxGeometry>
                </mxCell>
                <mxCell id="7" value="now" style="rounded=0;whiteSpace=wrap;html=1;" vertex="1" parent="1">
                    <mxGeometry x="418" y="585" width="50" height="40" as="geometry"/>
                </mxCell>
                <mxCell id="8" value="next" style="rounded=0;whiteSpace=wrap;html=1;" vertex="1" parent="1">
                    <mxGeometry x="510" y="585" width="50" height="40" as="geometry"/>
                </mxCell>
                <mxCell id="10" value="slack" style="rounded=0;whiteSpace=wrap;html=1;" vertex="1" parent="1">
                    <mxGeometry x="320" y="660" width="190" height="40" as="geometry"/>
                </mxCell>
                <mxCell id="11" value="cur" style="rounded=0;whiteSpace=wrap;html=1;" vertex="1" parent="1">
                    <mxGeometry x="280" y="530" width="50" height="40" as="geometry"/>
                </mxCell>
                <mxCell id="12" value="next = last + 每次请求花费的时间&lt;br&gt;如果next &amp;gt; now 就需要睡眠；&amp;nbsp;" style="text;html=1;strokeColor=none;fillColor=none;align=center;verticalAlign=middle;whiteSpace=wrap;rounded=0;" vertex="1" parent="1">
                    <mxGeometry x="190" y="180" width="470" height="150" as="geometry"/>
                </mxCell>
                <mxCell id="14" value="&lt;br&gt;&lt;span style=&quot;color: rgb(0, 0, 0); font-family: Helvetica; font-size: 12px; font-style: normal; font-variant-ligatures: normal; font-variant-caps: normal; font-weight: 400; letter-spacing: normal; orphans: 2; text-align: center; text-indent: 0px; text-transform: none; widows: 2; word-spacing: 0px; -webkit-text-stroke-width: 0px; background-color: rgb(251, 251, 251); text-decoration-thickness: initial; text-decoration-style: initial; text-decoration-color: initial; float: none; display: inline !important;&quot;&gt;next = last + 每次请求花费的时间&lt;/span&gt;&lt;br style=&quot;border-color: var(--border-color); color: rgb(0, 0, 0); font-family: Helvetica; font-size: 12px; font-style: normal; font-variant-ligatures: normal; font-variant-caps: normal; font-weight: 400; letter-spacing: normal; orphans: 2; text-align: center; text-indent: 0px; text-transform: none; widows: 2; word-spacing: 0px; -webkit-text-stroke-width: 0px; background-color: rgb(251, 251, 251); text-decoration-thickness: initial; text-decoration-style: initial; text-decoration-color: initial;&quot;&gt;&lt;span style=&quot;color: rgb(0, 0, 0); font-family: Helvetica; font-size: 12px; font-style: normal; font-variant-ligatures: normal; font-variant-caps: normal; font-weight: 400; letter-spacing: normal; orphans: 2; text-align: center; text-indent: 0px; text-transform: none; widows: 2; word-spacing: 0px; -webkit-text-stroke-width: 0px; background-color: rgb(251, 251, 251); text-decoration-thickness: initial; text-decoration-style: initial; text-decoration-color: initial; float: none; display: inline !important;&quot;&gt;如果next - slack &amp;gt; now 就需要睡眠；&amp;nbsp;&lt;br&gt;&lt;/span&gt;&lt;br&gt;假如每秒10个请求， 那么一个请求花费0.1秒，&amp;nbsp;&lt;br&gt;slack = slack - 0.1&amp;nbsp;&amp;nbsp;&lt;br&gt;如果时间间隔为 (now - last) 秒， 那么&lt;br&gt;slack需要补充&lt;br&gt;slack = (now - last) * per/unit&amp;nbsp;" style="text;html=1;strokeColor=none;fillColor=none;align=center;verticalAlign=middle;whiteSpace=wrap;rounded=0;" vertex="1" parent="1">
                    <mxGeometry x="179" y="740" width="470" height="150" as="geometry"/>
                </mxCell>
                <mxCell id="15" value="last" style="rounded=0;whiteSpace=wrap;html=1;" vertex="1" parent="1">
                    <mxGeometry x="290" y="80" width="50" height="40" as="geometry"/>
                </mxCell>
                <mxCell id="16" value="last" style="rounded=0;whiteSpace=wrap;html=1;" vertex="1" parent="1">
                    <mxGeometry x="350" y="585" width="50" height="40" as="geometry"/>
                </mxCell>
            </root>
        </mxGraphModel>
    </diagram>
</mxfile>